<svg width="1100" height="500" viewBox="0 0 1100 500" fill="none" xmlns="http://www.w3.org/2000/svg" role="img" aria-labelledby="title desc">
  <title id="title">Yudhveer Singh Panwar terminal profile</title>
  <desc id="desc">Generated terminal-style GitHub profile with ASCII portrait and system information.</desc>
  <defs>
    <linearGradient id="terminalBg" x1="0" y1="0" x2="1" y2="1">
      <stop offset="0%" stop-color="#080c10"/>
      <stop offset="45%" stop-color="#0d1117"/>
      <stop offset="100%" stop-color="#101820"/>
    </linearGradient>
    <linearGradient id="titleBar" x1="0" y1="0" x2="1" y2="0">
      <stop offset="0%" stop-color="#151b23"/>
      <stop offset="100%" stop-color="#0f141b"/>
    </linearGradient>
    <filter id="softGlow" x="-20%" y="-20%" width="140%" height="140%">
      <feDropShadow dx="0" dy="0" stdDeviation="7" flood-color="#00ff88" flood-opacity="0.28"/>
    </filter>
    <style>
      .mono { font-family: "SFMono-Regular", "Cascadia Code", "Consolas", "Liberation Mono", monospace; }
      .title { fill: #f0f6fc; font-size: 31px; font-weight: 800; }
      .subtitle { fill: #8b949e; font-size: 17px; }
      .body { fill: #d7fbe8; font-size: 15px; }
      .muted { fill: #7d8590; }
      .cmd { fill: #00ff88; font-size: 17px; font-weight: 800; }
      .tag { fill: #d7fbe8; font-size: 14px; font-weight: 700; }
      .ascii { fill: #b7ffd0; font-size: 9px; letter-spacing: 0; filter: url(#softGlow); }
      .prompt { fill: #00ff88; font-size: 15px; font-weight: 800; }
      .cursor { fill: #00ff88; }
    </style>
  </defs>

  <rect x="14" y="14" width="1072" height="472" rx="24" fill="#030507"/>
  <rect x="24" y="24" width="1052" height="452" rx="18" fill="url(#terminalBg)" stroke="#263241" stroke-width="2"/>
  <rect x="24" y="24" width="1052" height="52" rx="18" fill="url(#titleBar)"/>
  <path d="M24 58H1076V76H24V58Z" fill="#111820"/>

  <circle cx="56" cy="51" r="8" fill="#ff5f57"/>
  <circle cx="82" cy="51" r="8" fill="#ffbd2e"/>
  <circle cx="108" cy="51" r="8" fill="#28c840"/>
  <text x="550" y="57" text-anchor="middle" class="mono muted" font-size="14">yudhveer10 / README.md</text>

  <rect x="46" y="96" width="360" height="344" rx="12" fill="#07100c" stroke="#1d2b24"/>
  <text class="mono ascii">
    <tspan x="58" y="112">             --+++++=====+===</tspan><tspan x="58" y="122">           +######%#***********+++</tspan><tspan x="58" y="132">           +@@@@@@@##%%#%%@@@@%%##**+</tspan><tspan x="58" y="142">       +=+*%@@@@@@%####%%%%%%%%%%%%%%#</tspan><tspan x="58" y="152">     +++*%@@@@@@@%%@%%%########%@@@@@@%*</tspan><tspan x="58" y="162">    +++**#%@@@@@@@@@@@%%%@%%@%%%@@@@@@@%</tspan><tspan x="58" y="172">    +*##***#%@@%*#%@@@@@@@@@@@@@@@@@@@@%</tspan><tspan x="58" y="182">    *%%%%####*=-::-=++*#####%@@@@@@@@@@#</tspan><tspan x="58" y="192">    +@@@@@%*+-:..  ...::::--=+**++*%@@@@#</tspan><tspan x="58" y="202">     %@@@@*=::.             ...:::=#@@@@#</tspan><tspan x="58" y="212">     *%@@@*:........     :-=++**+=-*@@@%</tspan><tspan x="58" y="222">      *%@@=:+**%%%@%+=--+@@@@@@@@%+:#@@*</tspan><tspan x="58" y="232">       *%%.:+*%%@@%%*:..=#%#####*+-:=%#*</tspan><tspan x="58" y="242">       -=*. .:::--:.      ..:::.   .:*==-</tspan><tspan x="58" y="252">       . =:       ...  .:::-.     .:-*+::</tspan><tspan x="58" y="262">        .--     .-:-*#*#@@#===:.:--:-*+*</tspan><tspan x="58" y="272">        *%+.:-.:*##**##*#%%#@@#--+=-+#%#</tspan><tspan x="58" y="282">         %+-:-.-%%+:....:::-=*#--==+*=</tspan><tspan x="58" y="292">           ++==-+=.:-+*###+-:-+**#%@#</tspan><tspan x="58" y="302">            ##*+*+-:-=++*+=--+%@@@@%</tspan><tspan x="58" y="312">             +%@@#++++++***##%@@@@*-</tspan><tspan x="58" y="322">            #:-#@@@@@@@@@@@@@@@@@*--</tspan><tspan x="58" y="332">          +#@*.:=*%@@@@@@@@@@@@%*+-*@@%*</tspan><tspan x="58" y="342">         *#%@* .::-=+##%@@@@@%%*+=--*@@@%*</tspan><tspan x="58" y="352">  ##*##%##%%@#.....:-=+*%%%%#*++=--::#@@@%###*</tspan><tspan x="58" y="362">#%@%%%%@%%%%@@=   ..:--=++**+==----:=@@@@@@@@%%%</tspan><tspan x="58" y="372">%@@%%@@@@%%%%@%-....::-==+++==------#@@@@@@@@@@@</tspan>
  </text>

  <text x="448" y="126" class="mono cmd">$ whoami</text>
  <text x="448" y="166" class="mono title">Yudhveer Singh Panwar</text>
  <text x="450" y="195" class="mono subtitle">AI Engineer at TechAIVV | Delhi, India</text>
  <text x="450" y="228" class="mono body">contact : yudhveerp10@gmail.com</text>

  <text x="448" y="330" class="mono cmd">$ stack</text>
  <text x="450" y="364" class="mono body"><tspan x="450" dy="0">python  c++  typescript  sql</tspan><tspan x="450" dy="22">next.js  react  tailwind  fastapi</tspan><tspan x="450" dy="22">langgraph  openai  gemini  faiss</tspan></text>

  <text x="754" y="330" class="mono cmd">$ projects</text>
  <text x="756" y="364" class="mono body"><tspan x="756" dy="0">AI Agents</tspan><tspan x="756" dy="22">LangGraph Workflows</tspan><tspan x="756" dy="22">AI Content Repurposing</tspan><tspan x="756" dy="22">Panwar Alpha</tspan></text>

  
      <rect x="448" y="258" width="104" height="34" rx="8" fill="#111a20" stroke="#23313b"/>
      <text x="464" y="280" class="mono tag">repos 21</text>
    
  
      <rect x="564" y="258" width="108" height="34" rx="8" fill="#111a20" stroke="#23313b"/>
      <text x="580" y="280" class="mono tag">stars 1</text>
    
  
      <rect x="684" y="258" width="136" height="34" rx="8" fill="#111a20" stroke="#23313b"/>
      <text x="700" y="280" class="mono tag">followers 4</text>
    
  
      <rect x="832" y="258" width="104" height="34" rx="8" fill="#111a20" stroke="#23313b"/>
      <text x="848" y="280" class="mono tag">top HTML</text>
    

  <text x="448" y="450" class="mono prompt">yudhveer@github</text>
  <text x="578" y="450" class="mono body">:</text>
  <text x="590" y="450" class="mono" fill="#58a6ff" font-size="15">~/ai-lab</text>
  <text x="666" y="450" class="mono prompt">$</text>
  <text x="688" y="450" class="mono body">building useful AI products</text>
  <rect x="928" y="436" width="10" height="20" class="cursor">
    <animate attributeName="opacity" values="1;1;0;0;1" dur="1.2s" repeatCount="indefinite"/>
  </rect>
</svg>
